<?xml version="1.0" standalone="no"?>
<!DOCTYPE svg PUBLIC "-//W3C//DTD SVG 20010904//EN"
 "http://www.w3.org/TR/2001/REC-SVG-20010904/DTD/svg10.dtd">
<svg version="1.0" xmlns="http://www.w3.org/2000/svg"
 width="360.000000pt" height="360.000000pt" viewBox="0 0 360.000000 360.000000"
 preserveAspectRatio="xMidYMid meet">

<g transform="translate(0.000000,360.000000) scale(0.100000,-0.100000)"
fill="#000000" stroke="none">
<path d="M1640 3473 c-1020 -100 -1717 -1085 -1470 -2076 153 -613 623 -1079
1240 -1230 546 -134 1139 27 1551 421 495 472 652 1200 397 1839 -84 213 -199
384 -373 558 -229 229 -473 368 -781 445 -172 42 -396 60 -564 43z m285 -668
c270 -57 475 -309 475 -585 0 -324 -276 -600 -600 -600 -276 0 -528 205 -585
475 -43 204 16 397 164 546 149 149 342 207 546 164z m48 -1380 c239 -36 460
-148 632 -320 102 -102 247 -319 244 -367 0 -7 -31 -40 -69 -72 -194 -167
-431 -283 -690 -337 -155 -33 -419 -33 -580 0 -256 52 -488 166 -689 336 -39
33 -71 66 -71 73 -1 50 143 265 245 367 257 257 616 375 978 320z"/>
</g>
</svg>
